/* XPM */
static char *f15c5ac626e44b6cc9e97c3f25c1365ccFZWHF0x0HVTn7rS[] = {
/* columns rows colors chars-per-pixel */
"32 32 8 1 ",
"  c None",
". c #141B1B",
"X c #477238",
"o c #61683A",
"O c #61A53F",
"+ c #8FD032",
"@ c #939446",
"# c white",
/* pixels */
"                                ",
"                                ",
"                                ",
"                                ",
"                                ",
"                                ",
"                                ",
"                                ",
"            ........            ",
"           .o@@@@@@o.           ",
"          .ooo@@@@ooo.          ",
"          .oooooooooo.          ",
"          .ooOOOOOOoo.          ",
"          .oO++++###o.          ",
"         .+o###+####o+.         ",
"         .++###++###++.         ",
"          .++++++++++.          ",
"           .X++++++X..          ",
"          .XOXXXXXXOX+.         ",
"          .X++OOOOOO++.         ",
"          .X++O..OOO..          ",
"           ......XX.            ",
"                                ",
"                                ",
"                                ",
"                                ",
"                                ",
"                                ",
"                                ",
"                                ",
"                                ",
"                                "
};
