/* XPM */
static char *f6a9efd8cee343bff8b27e650c8396a0vdPdKQSP53lyaMDu[] = {
/* columns rows colors chars-per-pixel */
"32 32 12 1 ",
"  c None",
". c #79174E",
"X c #387E4E",
"o c #AC502C",
"O c #FF5178",
"+ c #63AC3D",
"@ c #EC8D2E",
"# c #FFCF00",
"$ c #4B6886",
"% c #FFEE84",
"& c #93E9C1",
"* c #F5FFE9",
/* pixels */
"                                ",
"                                ",
"                                ",
"                                ",
"                                ",
"                                ",
"                                ",
"                                ",
"                                ",
"                                ",
"                                ",
"                                ",
"             oooooo             ",
"           oo######oo           ",
"          o##@@@@@@##o          ",
"         o%@@@@@@@@@@+o         ",
"         o&%%oooooo%%*o         ",
"         o*$#%%%%%%##Xo         ",
"         o$@####O####@o         ",
"          o@###O*.##@o          ",
"           o@@#@.@@@o           ",
"            oo@##@oo            ",
"              o@@o              ",
"              o@@o              ",
"             o#@@#o             ",
"            o%####%o            ",
"             o%%%%o             ",
"              oooo              ",
"                                ",
"                                ",
"                                ",
"                                "
};
