/* XPM */
static char *_c9f88f3195c4ac6ecc13af4a6233c79jIGxF02U3yQptZjD[] = {
/* columns rows colors chars-per-pixel */
"32 32 4 1 ",
"  c #656C17",
". c #72751B",
"X c #787B21",
"o c #7F8226",
/* pixels */
"................................",
"................................",
"................................",
"................................",
"................................",
"................................",
".........o......................",
".........XX.....................",
".....ooX. X.....................",
"......oXX  .ooX.................",
"...Xo. XX. XXo..................",
"....oXX X.XXX...................",
".... XX.  XX ...................",
"..... X..   ....................",
"...... .XX......................",
"........o ......................",
"........ .......................",
"................................",
"................................",
"................................",
"................................",
"................................",
"................................",
"................................",
"................................",
"................................",
"................................",
"................................",
"................................",
"................................",
"................................",
"................................"
};
