/* XPM */
static char *aeb73a0cd667453aa84c51e837f951a3m1xEgYWVHa6vtNgK[] = {
/* columns rows colors chars-per-pixel */
"32 32 14 1 ",
"  c None",
". c #0C1414",
"X c #3A2433",
"o c #51303D",
"O c #28324C",
"+ c #2B5652",
"@ c #387E4E",
"# c #3E4774",
"$ c #904C56",
"% c #BE6A62",
"& c #FFAF70",
"* c #68709A",
"= c #A4A8C3",
"- c #F5FFE9",
/* pixels */
"                                ",
"                                ",
"                                ",
"                                ",
"                                ",
"                                ",
"                                ",
"                                ",
"                                ",
"                                ",
"                                ",
"                                ",
"                                ",
"            ........            ",
"           .o$$$$$$o.           ",
"          .ooo$$$$ooo.          ",
"          .oooooooooo.          ",
"          .oo%%%%%%oo.          ",
"          .oXXX&&XXXo.          ",
"         .&o=OO&&OO=o&.         ",
"         .&&-##&&##-&&.         ",
"          .&&&&%%&&&&.          ",
"           .%&&&&&&%.           ",
"          .+@%%%%%%@+.          ",
"         .&&@@@@@@@@&&.         ",
"         .&&***..***&&.         ",
"          ..##....##..          ",
"                                ",
"                                ",
"                                ",
"                                ",
"                                "
};
