/* XPM */
static char *d43bb0f030fa4615dfc2013da2f414f790SjJOPsX3gOUveW[] = {
/* columns rows colors chars-per-pixel */
"32 32 5 1 ",
"  c None",
". c #382817",
"X c #4A3925",
"o c #6B5438",
"O c #977B41",
/* pixels */
"                                ",
"                                ",
"                                ",
"                                ",
"                                ",
"                                ",
"                                ",
"              XXXX              ",
"             XOOOOX             ",
"             .XXXX.             ",
"             .oooo.             ",
"             .oooX.             ",
"             .XoXX.             ",
"             .XooX.             ",
"             .XooX.             ",
"             .XooX.             ",
"             .XooX.             ",
"             .XooX.             ",
"             .XooX.             ",
"             .XooX.             ",
"             .XooX.             ",
"             .oXoX.             ",
"             .oXXX.             ",
"             .XXXX.             ",
"             .XXXX.             ",
"                                ",
"                                ",
"                                ",
"                                ",
"                                ",
"                                ",
"                                "
};
