/* XPM */
static char *b29120395a3f417c8a9bc1ee495c8e48XmtLqElxyDpdWhi1[] = {
/* columns rows colors chars-per-pixel */
"32 32 54 1 ",
"  c None",
". c #523522",
"X c #553D2D",
"o c #573C2D",
"O c #563D2D",
"+ c #573E2F",
"@ c #583F30",
"# c #554234",
"$ c #554436",
"% c #5A4A3D",
"& c #5C5247",
"* c #5D5247",
"= c #5F5249",
"- c #635447",
"; c #60554D",
": c #63584F",
"> c #615950",
", c #615851",
"< c #625950",
"1 c #655C53",
"2 c #655D56",
"3 c #665F58",
"4 c #666057",
"5 c #676159",
"6 c #68625A",
"7 c #68635A",
"8 c #69635B",
"9 c #69645B",
"0 c #69645C",
"q c #6A645C",
"w c #6A655C",
"e c #6B655D",
"r c #6B665D",
"t c #6B675D",
"y c #6C675E",
"u c #6C685E",
"i c #6D685F",
"p c #6D6861",
"a c #706B63",
"s c #706B64",
"d c #716C64",
"f c #716C65",
"g c #716D66",
"h c #767469",
"j c #7F7B73",
"k c #7E7C72",
"l c #7F7C73",
"z c #807C74",
"x c #807D74",
"c c #807D75",
"v c #817E75",
"b c #817E76",
"n c #837F77",
"m c #868579",
/* pixels */
"XXXXXXXX XXXXXXXXXXXXXXX XXXXXXX",
"mmmmmmmmXmmmmmmmmmmmmmmmXmmmmmmm",
"ljjjjlbbXmbblzbbljjjjlbnXbbbbxlx",
"iiiitiiiXiwyyywyiiiyiiiyXiyiwyyy",
"yyyyiittXwyyyywyyyyyyyywoyeywywy",
"wwww99wwX8w87e7ywwwwwwwyXw8ewww9",
"8878w799o888787797887888X7789799",
"77777777o777777777777777o7777777",
"75555555X555555755555555X5555555",
"ooXXXXXXXXX.XXXXXXXXXXX#X---XXXX",
"&&&&&&&&&&&#****&&&&&&&&&&&-****",
"&&&&&&&&&&&#****&&&&&&&&&&&-&***",
",=:>>>>>>>>%>>><:=>>,,,=>>:;>>>>",
"-;-------;-XXXXX#XX#XXXXXXXXXXXX",
"w99-ggggddassaaaagi#w08ww8w88w88",
"777-ppppipppppppiitO555555555555",
"377-pppppppppppppppX737373737373",
"737-pppppppppppppppX373737373737",
"ooXXXXoXXXXX+#++oooX-------XXXXX",
"33333333333o-,,,>,>>,,,,,,;X3333",
"33333333333X,,,,>,,,,,,,,,,X2333",
"33333333333X,,,,,,,,,,,,,,,X3333",
"XXXX-----;XXXXXXXXXXXXXXXXXXXXXX",
"877X77777885w705882-:88888888888",
"333X333333333333333-332533333333",
"333X333333333333333-335233333333",
"333X333325523333333-332433333333",
"XXXXXXXXXXXXXXXXXXX-----XXXXXXXX",
"hhhhhhhhXhhhhhhhhhhhhhhhXhhhhhhh",
"kkkljjllXkkkkkkkllkkkkkkXllljjll",
"44444444X444444444444444X4444444",
"XXXXXXXXXXXXXXXXXXXXXXXXX-------"
};
