/* XPM */
static char *result[] = {
/* columns rows colors chars-per-pixel */
"32 32 43 1 ",
"  c #5F5345",
". c #625243",
"X c #605345",
"o c #635446",
"O c #62584B",
"+ c #64584B",
"@ c #63584D",
"# c #635A4D",
"$ c #63584E",
"% c #635A4F",
"& c #655B4F",
"* c #655B50",
"= c #655C50",
"- c #675D50",
"; c #676053",
": c #676057",
"> c #6A6056",
", c #686058",
"< c #68625A",
"1 c #68635A",
"2 c #6D6359",
"3 c #6A645B",
"4 c #6A655B",
"5 c #6D675B",
"6 c #6F665B",
"7 c #6D685D",
"8 c #746658",
"9 c #757367",
"0 c #777368",
"q c #777369",
"w c #77756A",
"e c #7A786C",
"r c #7A786D",
"t c #7B796E",
"y c #7C796F",
"u c #7E7C71",
"i c #7F7C73",
"p c #817A70",
"a c #868076",
"s c #85827A",
"d c #86837A",
"f c #868679",
"g c None",
/* pixels */
"dfaggggggggggggggggggggggggggggg",
"sdpggggggggggggggggggggggggggggg",
"436ggggggggggggggggggggggggggggg",
"<12ggggggggggggggggggggggggggggg",
",:>ggggggggggggggggggggggggggggg",
"%$+ggggggggggggggggggggggggggggg",
" Xgggggggggggggggggggggggggggggg",
"OOgggggggggggggggggggggggggggggg",
"O#gggggggggggggggggggggggggggggg",
"@&gggggggggggggggggggggggggggggg",
"%=gggggggggggggggggggggggggggggg",
"*=gggggggggggggggggggggggggggggg",
".ogggggggggggggggggggggggggggggg",
"-5gggggggggggggggggggggggggggggg",
";qgggggggggggggggggggggggggggggg",
"7egggggggggggggggggggggggggggggg",
"9rgggggggggggggggggggggggggggggg",
"0tgggggggggggggggggggggggggggggg",
"0ugggggggggggggggggggggggggggggg",
"wigggggggggggggggggggggggggggggg",
"wigggggggggggggggggggggggggggggg",
"wigggggggggggggggggggggggggggggg",
"wigggggggggggggggggggggggggggggg",
"wigggggggggggggggggggggggggggggg",
"wigggggggggggggggggggggggggggggg",
"wigggggggggggggggggggggggggggggg",
"wigggggggggggggggggggggggggggggg",
"wigggggggggggggggggggggggggggggg",
"wigggggggggggggggggggggggggggggg",
"wigggggggggggggggggggggggggggggg",
"wigggggggggggggggggggggggggggggg",
"8ygggggggggggggggggggggggggggggg"
};
