/* XPM */
static char *result[] = {
/* columns rows colors chars-per-pixel */
"32 32 49 1 ",
"  c #5C4534",
". c #5D4B3D",
"X c #614C3D",
"o c #635040",
"O c #655141",
"+ c #665344",
"@ c #665646",
"# c #685344",
"$ c #695545",
"% c #62564B",
"& c #675748",
"* c #63594F",
"= c #685849",
"- c #68594A",
"; c #69594A",
": c #655F56",
"> c #6A5E50",
", c #685F52",
"< c #6E6052",
"1 c #6E6153",
"2 c #666058",
"3 c #686259",
"4 c #68635A",
"5 c #6B665C",
"6 c #6B665D",
"7 c #6C685C",
"8 c #6D685D",
"9 c #6D695E",
"0 c #6F6B5F",
"q c #706255",
"w c #716255",
"e c #716356",
"r c #756355",
"t c #776557",
"y c #746658",
"u c #756A5B",
"i c #706C61",
"p c #726E62",
"a c #737065",
"s c #757267",
"d c #77756A",
"f c #78756A",
"g c #79776C",
"h c #7C796F",
"j c #7E7A71",
"k c #7E7B72",
"l c #838175",
"z c #868579",
"x c None",
/* pixels */
"xxxxxxxxxxxxxxxxxxxxxxxxxxxxxrzu",
"xxxxxxxxxxxxxxxxxxxxxxxxxxxxxtzl",
"xxxxxxxxxxxxxxxxxxxxxxxxxxxxx$kj",
"xxxxxxxxxxxxxxxxxxxxxxxxxxxxx#56",
"xxxxxxxxxxxxxxxxxxxxxxxxxxxxxO34",
"xxxxxxxxxxxxxxxxxxxxxxxxxxxxxX:2",
"xxxxxxxxxxxxxxxxxxxxxxxxxxxxxx%*",
"xxxxxxxxxxxxxxxxxxxxxxxxxxxxxxo,",
"xxxxxxxxxxxxxxxxxxxxxxxxxxxxxx@7",
"xxxxxxxxxxxxxxxxxxxxxxxxxxxxxx&8",
"xxxxxxxxxxxxxxxxxxxxxxxxxxxxxx=9",
"xxxxxxxxxxxxxxxxxxxxxxxxxxxxxx-0",
"xxxxxxxxxxxxxxxxxxxxxxxxxxxxxx;i",
"xxxxxxxxxxxxxxxxxxxxxxxxxxxxxx+>",
"xxxxxxxxxxxxxxxxxxxxxxxxxxxxxx<p",
"xxxxxxxxxxxxxxxxxxxxxxxxxxxxxx<a",
"xxxxxxxxxxxxxxxxxxxxxxxxxxxxxx1s",
"xxxxxxxxxxxxxxxxxxxxxxxxxxxxxxqd",
"xxxxxxxxxxxxxxxxxxxxxxxxxxxxxxef",
"xxxxxxxxxxxxxxxxxxxxxxxxxxxxxxyg",
"xxxxxxxxxxxxxxxxxxxxxxxxxxxxxxwh",
"xxxxxxxxxxxxxxxxxxxxxxxxxxxxxxyh",
"xxxxxxxxxxxxxxxxxxxxxxxxxxxxxxyh",
"xxxxxxxxxxxxxxxxxxxxxxxxxxxxxxyh",
"xxxxxxxxxxxxxxxxxxxxxxxxxxxxxxyh",
"xxxxxxxxxxxxxxxxxxxxxxxxxxxxxxyh",
"xxxxxxxxxxxxxxxxxxxxxxxxxxxxxxyh",
"xxxxxxxxxxxxxxxxxxxxxxxxxxxxxxyh",
"xxxxxxxxxxxxxxxxxxxxxxxxxxxxxxyh",
"xxxxxxxxxxxxxxxxxxxxxxxxxxxxxxyg",
"xxxxxxxxxxxxxxxxxxxxxxxxxxxxxxwh",
"xxxxxxxxxxxxxxxxxxxxxxxxxxxxxx ."
};
