/* XPM */
static char *result[] = {
/* columns rows colors chars-per-pixel */
"32 32 37 1 ",
"  c #5A402D",
". c #644B3A",
"X c #604C3C",
"o c #644E3C",
"O c #664F3E",
"+ c #675343",
"@ c #685443",
"# c #695443",
"$ c #6A5747",
"% c #685648",
"& c #6A5748",
"* c #6A5948",
"= c #6B5B4C",
"- c #6F5A4C",
"; c #6F5B4C",
": c #6E5E50",
"> c #726557",
", c #756557",
"< c #766659",
"1 c #766759",
"2 c #776A5D",
"3 c #796C5E",
"4 c #796D5F",
"5 c #7A6C5F",
"6 c #7A6D5F",
"7 c #7A7162",
"8 c #7D7163",
"9 c #807B70",
"0 c #837E72",
"q c #837F72",
"w c #848175",
"e c #868478",
"r c #868479",
"t c #868579",
"y c #86857A",
"u c #8A887E",
"i c None",
/* pixels */
"iiiiiiiiiiiiiiiiiiiiiiiiiiiii5t&",
"iiiiiiiiiiiiiiiiiiiiiiiiiiiii5t&",
"iiiiiiiiiiiiiiiiiiiiiiiiiiiii2y&",
"iiiiiiiiiiiiiiiiiiiiiiiiiiiii%>O",
"iiiiiiiiiiiiiiiiiiiiiiiiiiiii;w&",
"iiiiiiiiiiiiiiiiiiiiiiiiiiiii5t&",
"iiiiiiiiiiiiiiiiiiiiiiiiiiiii5t&",
"iiiiiiiiiiiiiiiiiiiiiiiiiiiii5t&",
"iiiiiiiiiiiiiiiiiiiiiiiiiiiii<q@",
"iiiiiiiiiiiiiiiiiiiiiiiiiiiii1q@",
"iiiiiiiiiiiiiiiiiiiiiiiiiiiii3t$",
"iiiiiiiiiiiiiiiiiiiiiiiiiiiii5t&",
"iiiiiiiiiiiiiiiiiiiiiiiiiiiii5t&",
"iiiiiiiiiiiiiiiiiiiiiiiiiiiii5u#",
"iiiiiiiiiiiiiiiiiiiiiiiiiiiii;>X",
"iiiiiiiiiiiiiiiiiiiiiiiiiiiii57 ",
"iiiiiiiiiiiiiiiiiiiiiiiiiiiii5t&",
"iiiiiiiiiiiiiiiiiiiiiiiiiiiii5t&",
"iiiiiiiiiiiiiiiiiiiiiiiiiiiii5t&",
"iiiiiiiiiiiiiiiiiiiiiiiiiiiii-8.",
"iiiiiiiiiiiiiiiiiiiiiiiiiiiii6t*",
"iiiiiiiiiiiiiiiiiiiiiiiiiiiii5t&",
"iiiiiiiiiiiiiiiiiiiiiiiiiiiii5t&",
"iiiiiiiiiiiiiiiiiiiiiiiiiiiii5t&",
"iiiiiiiiiiiiiiiiiiiiiiiiiiiii<0@",
"iiiiiiiiiiiiiiiiiiiiiiiiiiiii<0@",
"iiiiiiiiiiiiiiiiiiiiiiiiiiiii5t&",
"iiiiiiiiiiiiiiiiiiiiiiiiiiiii5t&",
"iiiiiiiiiiiiiiiiiiiiiiiiiiiii:r$",
"iiiiiiiiiiiiiiiiiiiiiiiiiiiii=9$",
"iiiiiiiiiiiiiiiiiiiiiiiiiiiii+4o",
"iiiiiiiiiiiiiiiiiiiiiiiiiiiii,e*"
};
