/* XPM */
static char *result[] = {
/* columns rows colors chars-per-pixel */
"32 32 38 1 ",
"  c #614837",
". c #634F3E",
"X c #654E3C",
"o c #644F3F",
"O c #664F3E",
"+ c #675240",
"@ c #655344",
"# c #675444",
"$ c #6B5344",
"% c #685645",
"& c #6A5747",
"* c #6D594B",
"= c #6C5A4A",
"- c #6D5D4C",
"; c #6D5C4D",
": c #6F5F4F",
"> c #715F50",
", c #736053",
"< c #716252",
"1 c #716253",
"2 c #726354",
"3 c #706457",
"4 c #706557",
"5 c #756557",
"6 c #776759",
"7 c #7A7165",
"8 c #7B7467",
"9 c #7E786C",
"0 c #817C6F",
"q c #827F72",
"w c #837E73",
"e c #848276",
"r c #878379",
"t c #858478",
"y c #868579",
"u c #88867B",
"i c #88867C",
"p c None",
/* pixels */
"1y6ppppppppppppppppppppppppppppp",
"1y6ppppppppppppppppppppppppppppp",
"2i;ppppppppppppppppppppppppppppp",
"O3@ppppppppppppppppppppppppppppp",
"10*ppppppppppppppppppppppppppppp",
"1y6ppppppppppppppppppppppppppppp",
"1y6ppppppppppppppppppppppppppppp",
"1y6ppppppppppppppppppppppppppppp",
">r,ppppppppppppppppppppppppppppp",
"-q,ppppppppppppppppppppppppppppp",
"1y6ppppppppppppppppppppppppppppp",
"1y6ppppppppppppppppppppppppppppp",
"2y6ppppppppppppppppppppppppppppp",
"&w6ppppppppppppppppppppppppppppp",
".4$ppppppppppppppppppppppppppppp",
"=e6ppppppppppppppppppppppppppppp",
"1y6ppppppppppppppppppppppppppppp",
"1y6ppppppppppppppppppppppppppppp",
"2u6ppppppppppppppppppppppppppppp",
"+8$ppppppppppppppppppppppppppppp",
"1y6ppppppppppppppppppppppppppppp",
"1y6ppppppppppppppppppppppppppppp",
"1y6ppppppppppppppppppppppppppppp",
"1y6ppppppppppppppppppppppppppppp",
">r,ppppppppppppppppppppppppppppp",
"-q,ppppppppppppppppppppppppppppp",
"1y6ppppppppppppppppppppppppppppp",
":t6ppppppppppppppppppppppppppppp",
"<9#ppppppppppppppppppppppppppppp",
"57oppppppppppppppppppppppppppppp",
"X% ppppppppppppppppppppppppppppp",
"1y,ppppppppppppppppppppppppppppp"
};
