/* XPM */
static char *_04b87cd7a6a40ca86fb02a774c122c9pW6yLrlGwaxeOjwE[] = {
/* columns rows colors chars-per-pixel */
"32 32 78 1 ",
"  c #523522",
". c #543624",
"X c #553828",
"o c #553D2D",
"O c #573C2D",
"+ c #573D2D",
"@ c #583F31",
"# c #554234",
"$ c #554436",
"% c #584030",
"& c #584032",
"* c #594233",
"= c #5A4334",
"- c #594336",
"; c #5A4435",
": c #5A4539",
"> c #5B4638",
", c #58473A",
"< c #5B483C",
"1 c #5A4A3D",
"2 c #5D4A3C",
"3 c #5E4A3C",
"4 c #5E4C3F",
"5 c #5E4C40",
"6 c #5C4D42",
"7 c #5D4D42",
"8 c #5F5044",
"9 c #5E5147",
"0 c #5C5247",
"q c #5F5249",
"w c #5F544B",
"e c #645040",
"r c #665342",
"t c #625245",
"y c #695745",
"u c #615348",
"i c #62554A",
"p c #645448",
"a c #60554D",
"s c #62574C",
"d c #62584E",
"f c #62594F",
"g c #655A4D",
"h c #615950",
"j c #615851",
"k c #635A51",
"l c #645A50",
"z c #655C53",
"x c #655D56",
"c c #685E55",
"v c #665F58",
"b c #666057",
"n c #6D6456",
"m c #676159",
"M c #68625A",
"N c #68635A",
"B c #69635B",
"V c #69645B",
"C c #69645C",
"Z c #6A655C",
"A c #6B675D",
"S c #6C675E",
"D c #6D685F",
"F c #706050",
"G c #706457",
"H c #71685B",
"J c #756A5B",
"K c #6D6861",
"L c #716C64",
"P c #716D66",
"I c #767469",
"U c #7F7B73",
"Y c #7E7C72",
"T c #7F7C73",
"R c #807C74",
"E c #817E76",
"W c #837F77",
"Q c #868579",
/* pixels */
"FFFFFFFFyFFFFFFFFFFFFFFFyFFFFFFF",
"QQQQQQQQJQQQQQQQQQQQQQQQJQQQQQQQ",
"TUUUUTEEGEEEERRRRRRRRUEEGQURERET",
"DDDDADDDpSSSSSSSSKSSDSDDpDVDVDVD",
"SSADDDAAtSSSAAAASSASSSSVpSSADDVD",
"AVAVVVVAtBBCBBAVVBVAVVSAtBBBVVVV",
"BBNVVNBV2AAVmANVVVVNVBBV3BNVVbVV",
"BmNNVVmB2mmmVmNNBBmVVBmV3mVVVVVV",
"mmmmvmmm,mmmmNmmmbbbbbmm;Vmmmmmm",
"++++oo++,oo oo++%oo+%+%+,++ oooo",
"00000000000#000800000000800$0ww0",
"0000000w000#000w0000000w000$0006",
"jwhhjjhjhjd1hhhkjwkhjwhhdjj1wdhk",
"hhsskskkhw8=tkhhjwkwjhkkhs6=8hkk",
"AACiKIKIPPKPKKPLPPPkAmBCACCCCCAC",
"mmmxKKKKKKKKKKKKKKKwmmmmvCmmmmmm",
"vBvcKKKKKKKKKKKKKKKwBvmmmmvCvmmm",
"mvCpKKKKKKKKKKKKKKA4vvmmmmmvmmmm",
"sue#=:<5652@@@@+o%*;@@@@=::@tkxx",
"vvvvvvvvvvv5wjjjwjjkjjjjjjw,xmxx",
"vvvvvvvvvvvsjjjjhhhhjjjjjjj5xvvv",
"vvvvvvvvvvvtjkjjjjhhjjjjjjj5mvvv",
"jsussjsjss2+,26wwwwwa<555:,X2sss",
"BCCsBBCCmBBCVmBmmCz,jBBBCmBBBBBB",
"vvvsvvvvbbxmvvvvxmxwvvbbvvvvvvvv",
"vvxwvvvvbbmxvvvvmmx8vvvbvvvvvvvv",
"vvv5vvvvbbbbvvvvvvv6vvbbvvvvvvvv",
"rrrrrrrterrrrrrrrrrrrrrretrrrrrr",
"IIIIIIIInIIIIIIIIIIIIIIInIIIIIII",
"TTTRRUUUATRTTTTTUTTTTTTTnTTTUUUU",
"bbbbbbvxdmbbbbbbbbbbbbbbgbbbbbxm",
";%;;;;;;.;;;;%;;;;==;;;;.;;;;;;;"
};
