/* XPM */
static char *c5bdd0d65cb94ae6926af1edb056d3379mEbD9MPfiWReZzV[] = {
/* columns rows colors chars-per-pixel */
"24 32 40 1 ",
"  c None",
". c #5E3E27",
"X c #533F2D",
"o c #634125",
"O c #63442B",
"+ c #684729",
"@ c #67482B",
"# c #694A2D",
"$ c #624632",
"% c #654A35",
"& c #6B4E32",
"* c #654F3C",
"= c #684D38",
"- c #6E5234",
"; c #66523F",
": c #715536",
"> c #755837",
", c #735738",
"< c #755A3A",
"1 c #795E3E",
"2 c #7B603F",
"3 c #675240",
"4 c #6D5741",
"5 c #6B5946",
"6 c #6D5C48",
"7 c #7A5F40",
"8 c #7D6241",
"9 c #7B6955",
"0 c #806545",
"q c #806648",
"w c #866C4C",
"e c #896F4E",
"r c #8B714F",
"t c #8A7251",
"y c #83705E",
"u c #937B5B",
"i c #847764",
"p c #857865",
"a c #8B7E6D",
"s c #908372",
/* pixels */
"        oo.o....        ",
"     ...1rw11ww>o.o     ",
"   ..uuu1rr00ee>0qqo.   ",
"  .e<<w8>8>>:10:+,7,:.  ",
" oee+008>811>88>>00&0>. ",
".<w<#e00>281>88>777-7q..",
".w<<-007>221188>777,71q.",
".1<>:000>222280>777>710o",
".<<<,0X7,771888>2X8:818.",
".XXXXX9X,771888>X9XXXXX.",
".9999999X771888X9999999.",
".XXXXX9X-111888:X9XXXXX.",
".+++o#X-<17<078>@X@@@@@.",
".,,,&7<&,777008>8<8,,,,.",
".,,,:17#>7<<781<818:,,,.",
".,,,:<<,,<7<010>821:,::.",
".<,,:<<<:144552<7<7-:::.",
".,:,:<<<:>499<<<8<8--:-.",
".:,::,,,::499;><2<<%---.",
".::,::::::444<-:2>2%---.",
".::,::X:-:....:-2X<----.",
".XXXXX9X-,&..&::X9XXXXX.",
"o9999999X,,-:<<X9999999.",
".4;54444X,,--::X;447;44.",
".XXXXX5X&-:---:&X4XXXXX.",
".---o-X-&,:----#<X<#&#%.",
".---@---&--@#--#,1,##&&.",
".%&%====%%=$$;%%=%%%%$O.",
".ppppiisaasyysaapiiiiiy.",
".;;;;5555564;6656553;;;.",
".;;;5;;555654666655;3;;.",
"........................"
};
