/* XPM */
static char *_6ef5e0511a24aad94aa8d7616cd3ed9Mol85EpdfaWYpnRU[] = {
/* columns rows colors chars-per-pixel */
"22 32 98 2 ",
"   c None",
".  c #4F2913",
"X  c #522B15",
"o  c #532F19",
"O  c #573016",
"+  c #56321B",
"@  c #59331B",
"#  c #5B381F",
"$  c #613A1D",
"%  c #553621",
"&  c #573925",
"*  c #5D3B23",
"=  c #5B3E29",
"-  c #613E23",
";  c #5E432E",
":  c #5A4230",
">  c #5E4835",
",  c #5F4A38",
"<  c #634125",
"1  c #66452B",
"2  c #6B472B",
"3  c #66482B",
"4  c #6A492D",
"5  c #644A34",
"6  c #6C4D32",
"7  c #634E3B",
"8  c #714F32",
"9  c #6E5134",
"0  c #68503C",
"q  c #725335",
"w  c #745639",
"e  c #765A3C",
"r  c #795B3D",
"t  c #6A5542",
"y  c #6B5946",
"u  c #6F5C4A",
"i  c #735740",
"p  c #735A42",
"a  c #715E48",
"s  c #715E49",
"d  c #705D4A",
"f  c #765F48",
"g  c #7A6041",
"h  c #7B6041",
"j  c #7D6041",
"k  c #7C6142",
"l  c #7D6142",
"z  c #7C6143",
"x  c #7E6142",
"c  c #7D6243",
"v  c #7F6343",
"b  c #7D6344",
"n  c #7F6244",
"m  c #7F6344",
"M  c #7F6444",
"N  c #7E6445",
"B  c #74604B",
"V  c #76604C",
"C  c #76624D",
"Z  c #78624E",
"A  c #776655",
"S  c #776756",
"D  c #7C6A55",
"F  c #796958",
"G  c #806345",
"H  c #816546",
"J  c #826747",
"K  c #816648",
"L  c #836849",
"P  c #83694A",
"I  c #846A4A",
"U  c #876D4F",
"Y  c #896F4F",
"T  c #896F50",
"R  c #806E5A",
"E  c #887050",
"W  c #897150",
"Q  c #897051",
"!  c #8A7150",
"~  c #8B7252",
"^  c #8B7254",
"/  c #8D7556",
"(  c #8D7557",
")  c #8E7656",
"_  c #8E7657",
"`  c #84715C",
"'  c #8F7758",
"]  c #917857",
"[  c #907858",
"{  c #917A59",
"}  c #917A5C",
"|  c #947D5C",
" . c #957D5D",
".. c #947E60",
"X. c #99815F",
"o. c #978164",
"O. c #9B8464",
"+. c #9B8465",
/* pixels */
"    w q @                         8 r e     ",
"    L N @                         2 T G     ",
"  4 T z @                         2 Y ~ 8   ",
"  e Q b @                         2 ] ] r   ",
"  } Q 9 o                         2 z  .]   ",
"  o._ 9 O                         8 H +. .  ",
"9 .._ 9 O                         2 H +. .8 ",
"e _ r 4 o                         2 H T  .w ",
"w / e 6 o                         2 G Y } q ",
"w Q q * X                         2 r I _ 6 ",
"< - + = o                         < p 2 2 - ",
"6 D t # X                         $ 2 R R 6 ",
"3 t ; 4 X                         $ G 2 z 1 ",
"< 2 3 4 X                         $ G z q - ",
"6 G q 1 ;                         w e J L 1 ",
"6 p 6 # ;                         V 8 H H 1 ",
"3 r 4 # :                         V 8 G z < ",
"4 e 6 ; &                         5 q j z - ",
"3 e 3 < X                         O w r p - ",
"3 e 1 < X                         O q e e * ",
"3 e 3 & .                         o 6 6 e * ",
"* 9 # ; X                         X 5 1 9 # ",
"* Z 0 + .                         X # d f * ",
"* B ; X >                         d - - d = ",
"X X + + :                         7 * - X X ",
"* 9 ; + :                         7 * q q # ",
"* 9 ; = .                         . 7 4 q & ",
"X X X ; .                         . y X X X ",
"= u t &                             5 F y & ",
"= y > %                             ; S t % ",
"& y , .                             . S t & ",
"o & +                                 = % o "
};
