/* XPM */
static char *fec5e8647677489b9503e8b72ec5fe66QYI68dIB1S3k9kiJ[] = {
/* columns rows colors chars-per-pixel */
"32 32 126 2 ",
"   c None",
".  c #4F3424",
"X  c #513220",
"o  c #523320",
"O  c #523522",
"+  c #513524",
"@  c #533724",
"#  c #553D2D",
"$  c #563D2D",
"%  c #553E2D",
"&  c #563E2D",
"*  c #553D2F",
"=  c #554234",
"-  c #554436",
";  c #5A4334",
":  c #594435",
">  c #5A4435",
",  c #5A4537",
"<  c #5D4737",
"1  c #5B4839",
"2  c #59483A",
"3  c #5C4839",
"4  c #5E4839",
"5  c #5D483A",
"6  c #5C483B",
"7  c #5D493B",
"8  c #5D4A3B",
"9  c #5A4A3D",
"0  c #5D4A3C",
"q  c #5E4A3C",
"w  c #5E4B3E",
"e  c #5C4C3F",
"r  c #5C4D3F",
"t  c #5E4C3E",
"y  c #5E4C3F",
"u  c #5F4C3F",
"i  c #5F4D3F",
"p  c #624E3E",
"a  c #5F4D40",
"s  c #5F4E41",
"d  c #5D4E42",
"f  c #5E4E42",
"g  c #5F4E42",
"h  c #5F4F43",
"j  c #5F4F44",
"k  c #5F5044",
"l  c #5E5045",
"z  c #5F5045",
"x  c #5C5247",
"c  c #5D5247",
"v  c #5D5348",
"b  c #604F41",
"n  c #604F42",
"m  c #605043",
"M  c #615043",
"N  c #665242",
"B  c #665342",
"V  c #625245",
"C  c #605247",
"Z  c #635447",
"A  c #675444",
"S  c #695745",
"D  c #615348",
"F  c #605349",
"G  c #60544A",
"H  c #61544A",
"J  c #61544B",
"K  c #61554B",
"L  c #62564B",
"P  c #645548",
"I  c #61564C",
"U  c #61564D",
"Y  c #62574C",
"T  c #63574C",
"R  c #62574D",
"E  c #61574E",
"W  c #62574E",
"Q  c #63584D",
"!  c #61594F",
"~  c #62584E",
"^  c #63584E",
"/  c #62594F",
"(  c #63594F",
")  c #615950",
"_  c #625950",
"`  c #635A51",
"'  c #645A50",
"]  c #645B52",
"[  c #655D54",
"{  c #655D56",
"}  c #655F57",
"|  c #665F58",
" . c #666057",
".. c #676159",
"X. c #68625A",
"o. c #68635A",
"O. c #69635B",
"+. c #69645B",
"@. c #69645C",
"#. c #6A645C",
"$. c #6A655C",
"%. c #6B655C",
"&. c #6B655D",
"*. c #6B665D",
"=. c #6B675D",
"-. c #6C675E",
";. c #6C685E",
":. c #6D685F",
">. c #706050",
",. c #706457",
"<. c #756A5B",
"1. c #767469",
"2. c #79776C",
"3. c #7D7B71",
"4. c #7F7B73",
"5. c #7E7C72",
"6. c #7F7C73",
"7. c #7F7D73",
"8. c #807C74",
"9. c #807D74",
"0. c #807D75",
"q. c #817E75",
"w. c #817E76",
"e. c #837F77",
"r. c #85837A",
"t. c #868579",
/* pixels */
">.>.>.>.>.>.>.>.S >.>.>.>.>.>.>.>.>.>.>.>.>.>.>.S >.>.>.>.>.>.>.",
"t.t.t.t.t.t.t.t.<.t.t.t.t.t.t.t.t.t.t.t.t.t.t.t.<.t.t.t.t.t.t.t.",
"6.4.4.4.4.6.w.w.,.w.w.w.w.8.w.8.8.8.4.4.8.8.w.w.,.w.w.9.9.9.9.9.",
":.:.:.:.=.:.:.:.P -.-.-.-.-.-.-.-.:.-.-.-.-.-.-.Z :.-.:.-.-.-.-.",
"-.-.-.-.:.:.=.=.P -.-.-.-.-.$.-.-.-.-.-.-.-.-.-.V -.#.-.-.-.-.-.",
"$.$.$.$.+.+.$.$.V O.O.O.o.#.o.-.$.+.O.-.$.$.-.-.V -.#.#.o.+.+.o.",
"O.O.o.O.$.o.+.+.p | O.O.o.O.o.o.+.o.+.o.o.o.O.O.q o.o.#.+.o.+.+.",
"o.o.o.o.o.o.o.o.q o.o.o.o.o.o.o.o.o.o.o.o.o.o.o.q o.o.o.o.o.o.o.",
"o.| ............3  . .o.o.o.| o...............o.5 | o.| o.| ....",
"$ $ # # # # # # 2 = o                     o # # 2 $ # o $ $ # # ",
"x x v x x x x x x @                         + v v v v - v V x x ",
"x x x x x x x x +                             + v v v - x x x x ",
") ) / _ _ _ / e                                 d ) _ 9 ) ) ) _ ",
"_ E ^ E / _ E 3                                 * j j > v ` ` ` ",
"O.O.O.^ O.O.$.h                                 q $.O.O.O.O.O.O.",
"o...o.E ......j                                 q ..o.| O.o.| o.",
"o.| o.E o.| o.n                                 e o.............",
"| o.| n | o.| n                                 n o.............",
"E V n n J ` _ 5                                 5 J E V E _ [ [ ",
"| | | | | | o.3                                 q | | J | | | | ",
"| | | | | | | 3                                 a | | ) [ | | | ",
"| | | | | | | q                                 a | | n | | | | ",
"_ E J E E E H :                                 6 j n , n ^ E E ",
"o.O.o.H O.O.o.n                                 a O.O.O.O.o.o.o.",
"| | | E | | | n                                 a | | | | | | | ",
"| | | H | | | q                                 a | | | | | | | ",
"| o.[ n | | | 3                                 a | | | | [ | | ",
"N N V N N N N S                                 n p N N N N S N ",
"1.1.1.1.1.1.1.2.                                3.1.1.1.1.1.1.1.",
"3.6.6.9.6.6.6.6.                                t.3.6.9.6.6.6.6.",
" . . . . . . .+.                                -. . . . . . . .",
"; ; > > : : : <                                 3 : : : : : : : "
};
