/* XPM */
static char *result[] = {
/* columns rows colors chars-per-pixel */
"32 32 152 2 ",
"   c #502913",
".  c #52301B",
"X  c #553018",
"o  c #53311D",
"O  c #58341B",
"+  c #59341B",
"@  c #58351C",
"#  c #59371F",
"$  c #5D391F",
"%  c #573620",
"&  c #573721",
"*  c #543622",
"=  c #553622",
"-  c #563722",
";  c #583620",
":  c #583720",
">  c #593823",
",  c #5B3A22",
"<  c #5C3A21",
"1  c #5C3B21",
"2  c #5E3B21",
"3  c #5F3D22",
"4  c #5E3C23",
"5  c #583B26",
"6  c #5D3C25",
"7  c #5F3F26",
"8  c #5F3F27",
"9  c #593D28",
"0  c #5A3D28",
"q  c #5B3E2A",
"w  c #5C3D28",
"e  c #5D3F29",
"r  c #603C21",
"t  c #613D22",
"y  c #603E23",
"u  c #603F24",
"i  c #613F25",
"p  c #5A402D",
"a  c #5D402C",
"s  c #5F432D",
"d  c #5E422E",
"f  c #5E432E",
"g  c #5F4330",
"h  c #5A4432",
"j  c #5D4735",
"k  c #614025",
"l  c #614125",
"z  c #614026",
"x  c #624126",
"c  c #634127",
"v  c #624327",
"b  c #62422A",
"n  c #64452A",
"m  c #64462A",
"M  c #65462A",
"N  c #65472B",
"B  c #60432D",
"V  c #6A4729",
"C  c #6A472A",
"Z  c #664A2D",
"A  c #6B4B2E",
"S  c #6C4A2D",
"D  c #684C2F",
"F  c #604430",
"G  c #604530",
"H  c #614531",
"J  c #624733",
"K  c #644832",
"L  c #644935",
"P  c #684B33",
"I  c #6A4B32",
"U  c #6A4C30",
"Y  c #684C33",
"T  c #6A4C33",
"R  c #6B4F32",
"E  c #6D4F31",
"W  c #6C4E32",
"Q  c #6D4F33",
"!  c #6E4F32",
"~  c #6E4F33",
"^  c #6A4D35",
"/  c #6B4F37",
"(  c #6C4C34",
")  c #654F3B",
"_  c #6F5133",
"`  c #6E5034",
"'  c #6F5135",
"]  c #67513E",
"[  c #705235",
"{  c #725334",
"}  c #725335",
"|  c #765637",
" . c #715638",
".. c #725739",
"X. c #745738",
"o. c #765738",
"O. c #765739",
"+. c #70543E",
"@. c #735839",
"#. c #73583B",
"$. c #74593A",
"%. c #765B3C",
"&. c #795E3F",
"*. c #685442",
"=. c #6C5540",
"-. c #6A5745",
";. c #6B5846",
":. c #775B41",
">. c #745B44",
",. c #7B5F40",
"<. c #795E46",
"1. c #7B6041",
"2. c #7B6142",
"3. c #7C6243",
"4. c #7E6243",
"5. c #7F6343",
"6. c #7D6145",
"7. c #7C6244",
"8. c #7E6244",
"9. c #7F6244",
"0. c #7F6344",
"q. c #7E6445",
"w. c #74614B",
"e. c #72614F",
"r. c #736150",
"t. c #786652",
"y. c #7C6852",
"u. c #816647",
"i. c #826849",
"p. c #836949",
"a. c #846A4A",
"s. c #846B4B",
"d. c #856B4C",
"f. c #856C4C",
"g. c #866C4C",
"h. c #876E4F",
"j. c #896E4E",
"k. c #887050",
"l. c #8B7250",
"z. c #8C7353",
"x. c #8D7453",
"c. c #8B7254",
"v. c #8D7455",
"b. c #8D7556",
"n. c #8F7858",
"m. c #917959",
"M. c #90785B",
"N. c #937B5C",
"B. c #927B5D",
"V. c #97805F",
"C. c #998262",
"Z. c None",
/* pixels */
"Z.Z.Z.Z.Z.Z.Z.Z.Z.Z.Z.Z.Z.Z.Z.Z.Z.Z.Z.Z.Z.Z.Z.Z.Z.Z.Z.Z.Z.Z.Z.Z.",
"Z.Z.Z.Z.Z.Z.Z.Z.Z.Z.Z.Z.Z.Z.Z.Z.Z.Z.Z.Z.Z.Z.Z.Z.Z.Z.Z.Z.Z.Z.Z.Z.",
"Z.Z.Z.Z.Z.Z.Z.Z.Z.Z.Z.Z.Z.Z.Z.Z.Z.Z.Z.Z.Z.Z.Z.Z.Z.Z.Z.Z.Z.Z.Z.Z.",
"Z.Z.Z.Z.Z.Z.Z.Z.Z.Z.Z.Z.Z.Z.Z.Z.Z.Z.Z.Z.Z.Z.Z.Z.Z.Z.Z.Z.Z.Z.Z.Z.",
"Z.Z.Z.Z.Z.Z.Z.Z.Z.Z.Z.Z.Z.Z.Z.Z.Z.Z.Z.Z.Z.Z.Z.Z.Z.Z.Z.Z.Z.Z.Z.Z.",
"Z.Z.Z.Z.Z.Z.Z.Z.Z.Z.Z.Z.Z.Z.Z.Z.Z.Z.Z.Z.Z.Z.Z.Z.Z.Z.Z.Z.Z.Z.Z.Z.",
"Z.Z.Z.Z.Z.Z.Z.Z.Z.f.A Z.Z.Z.Z.Z.Z.Z.Z.Z.Z.e l.Z.Z.Z.Z.Z.Z.Z.Z.Z.",
"Z.Z.Z.Z.Z.Z.Z.Z.Z.s.c Z.Z.Z.Z.Z.Z.Z.Z.Z.Z.e g.Z.Z.Z.Z.Z.Z.Z.Z.Z.",
"Z.Z.Z.Z.Z.Z.Z.Z.d.h.x Z.Z.Z.Z.Z.Z.Z.Z.Z.Z.e x.n.Z.Z.Z.Z.Z.Z.Z.Z.",
"Z.Z.Z.Z.Z.Z.Z.Z.M.3.k Z.Z.Z.Z.Z.Z.Z.Z.Z.Z.e 4.V.Z.Z.Z.Z.Z.Z.Z.Z.",
"Z.Z.Z.Z.Z.Z.Z.Z.B.7.u Z.Z.Z.Z.Z.Z.Z.Z.Z.Z.e 9.C.Z.Z.Z.Z.Z.Z.Z.Z.",
"Z.Z.Z.Z.Z.Z.Z.Z.b.#.y Z.Z.Z.Z.Z.Z.Z.Z.Z.Z.e 9.N.Z.Z.Z.Z.Z.Z.Z.Z.",
"Z.Z.Z.Z.Z.Z.Z.6.c.R 3 Z.Z.Z.Z.Z.Z.Z.Z.Z.Z.e 0.v.m.Z.Z.Z.Z.Z.Z.Z.",
"Z.Z.Z.Z.Z.Z.Z.6.k.8 + Z.Z.Z.Z.Z.Z.Z.Z.Z.Z.e :.j.z.Z.Z.Z.Z.Z.Z.Z.",
"Z.Z.Z.Z.Z.Z.Z.I +.w O Z.Z.Z.Z.Z.Z.Z.Z.Z.Z.e ~ <.<.Z.Z.Z.Z.Z.Z.Z.",
"Z.Z.Z.Z.Z.Z.Z./ w., 2 Z.Z.Z.Z.Z.Z.Z.Z.Z.Z.e O.>.y.Z.Z.Z.Z.Z.Z.Z.",
"Z.Z.Z.Z.Z.Z.Z.t r D 1 Z.Z.Z.Z.Z.Z.Z.Z.Z.Z.e 5.| V Z.Z.Z.Z.Z.Z.Z.",
"Z.Z.Z.Z.Z.Z.Z.[ 2.Z 6 Z.Z.Z.Z.Z.Z.Z.Z.Z.Z.( o.a.i.Z.Z.Z.Z.Z.Z.Z.",
"Z.Z.Z.Z.Z.Z.Z.' &.N - Z.Z.Z.Z.Z.Z.Z.Z.Z.Z.^ S p.q.Z.Z.Z.Z.Z.Z.Z.",
"Z.Z.Z.Z.Z.Z.Z.` %.m = Z.Z.Z.Z.Z.Z.Z.Z.Z.Z.P C u.1.Z.Z.Z.Z.Z.Z.Z.",
"Z.Z.Z.Z.Z.Z.Z.Q %.v # Z.Z.Z.Z.Z.Z.Z.Z.Z.Z.. O.8.&.Z.Z.Z.Z.Z.Z.Z.",
"Z.Z.Z.Z.Z.Z.Z.W $.l @ Z.Z.Z.Z.Z.Z.Z.Z.Z.Z.e } ,.%.Z.Z.Z.Z.Z.Z.Z.",
"Z.Z.Z.Z.Z.Z.Z.U ..< O Z.Z.Z.Z.Z.Z.Z.Z.Z.Z.e T X.@.Z.Z.Z.Z.Z.Z.Z.",
"Z.Z.Z.Z.Z.Z.Z.4 M 5   Z.Z.Z.Z.Z.Z.Z.Z.Z.Z.. b Y z Z.Z.Z.Z.Z.Z.Z.",
"Z.Z.Z.Z.Z.Z.Z.K t.5 : Z.Z.Z.Z.Z.Z.Z.Z.Z.Z.e $ =.t.Z.Z.Z.Z.Z.Z.Z.",
"Z.Z.Z.Z.Z.Z.Z.; B @ * Z.Z.Z.Z.Z.Z.Z.Z.Z.Z.0 $ 7 s Z.Z.Z.Z.Z.Z.Z.",
"Z.Z.Z.Z.Z.Z.Z.i E X j Z.Z.Z.Z.Z.Z.Z.Z.Z.Z.9 d { _ Z.Z.Z.Z.Z.Z.Z.",
"Z.Z.Z.Z.Z.Z.Z.n  .% * Z.Z.Z.Z.Z.Z.Z.Z.Z.Z.. ] !  .Z.Z.Z.Z.Z.Z.Z.",
"Z.Z.Z.Z.Z.Z.Z.> J p o Z.Z.Z.Z.Z.Z.Z.Z.Z.Z.Z.) L F Z.Z.Z.Z.Z.Z.Z.",
"Z.Z.Z.Z.Z.Z.Z.H ;.h Z.Z.Z.Z.Z.Z.Z.Z.Z.Z.Z.Z.f r.*.Z.Z.Z.Z.Z.Z.Z.",
"Z.Z.Z.Z.Z.Z.Z.G -.* Z.Z.Z.Z.Z.Z.Z.Z.Z.Z.Z.Z.Z.e.*.Z.Z.Z.Z.Z.Z.Z.",
"Z.Z.Z.Z.Z.Z.Z.& a Z.Z.Z.Z.Z.Z.Z.Z.Z.Z.Z.Z.Z.Z.g q Z.Z.Z.Z.Z.Z.Z."
};
