/* XPM */
static char *result[] = {
/* columns rows colors chars-per-pixel */
"32 32 126 2 ",
"   c #502E1A",
".  c #4D301F",
"X  c #51301A",
"o  c #51321C",
"O  c #50331F",
"+  c #51341F",
"@  c #543A29",
"#  c #553A29",
"$  c #543B2B",
"%  c #543C29",
"&  c #553C29",
"*  c #544031",
"=  c #544233",
"-  c #5A4131",
";  c #594333",
":  c #5A4232",
">  c #5A4334",
",  c #584637",
"<  c #5B4737",
"1  c #5D4534",
"2  c #5D4637",
"3  c #5C4737",
"4  c #5E4636",
"5  c #5C4738",
"6  c #5D4738",
"7  c #5A493A",
"8  c #5D4938",
"9  c #5D4939",
"0  c #5E4939",
"q  c #5C4B3D",
"w  c #5E4A3C",
"e  c #5E4B3C",
"r  c #5E4B3D",
"t  c #5F4B3D",
"y  c #5C4C3D",
"u  c #5F4C3D",
"i  c #5F4C3E",
"p  c #5F4D3F",
"a  c #624D3C",
"s  c #604E3F",
"d  c #5D4D40",
"f  c #5E4D40",
"g  c #5F4D40",
"h  c #5F4E41",
"j  c #5F4E42",
"k  c #5F4F42",
"l  c #5E4F43",
"z  c #5F4F43",
"x  c #5C5145",
"c  c #5D5145",
"v  c #5D5246",
"b  c #604E40",
"n  c #604F41",
"m  c #614F41",
"M  c #625143",
"N  c #665140",
"B  c #665240",
"V  c #675342",
"C  c #605145",
"Z  c #635345",
"A  c #615246",
"S  c #605247",
"D  c #645446",
"F  c #695544",
"G  c #605349",
"H  c #615349",
"J  c #61534A",
"K  c #61544A",
"L  c #61554B",
"P  c #62554A",
"I  c #62564B",
"U  c #63564B",
"Y  c #61554C",
"T  c #61564D",
"R  c #62564C",
"E  c #63574C",
"W  c #62564D",
"Q  c #62574D",
"!  c #63574D",
"~  c #61584E",
"^  c #61584F",
"/  c #62584E",
"(  c #63584E",
")  c #62584F",
"_  c #645A4F",
"`  c #635A50",
"'  c #645B51",
"]  c #655D53",
"[  c #655D55",
"{  c #655F56",
"}  c #665F57",
"|  c #70604F",
" . c #666056",
".. c #676158",
"X. c #68625A",
"o. c #68635A",
"O. c #69635B",
"+. c #69645B",
"@. c #69645C",
"#. c #6A645C",
"$. c #6A655C",
"%. c #6B655C",
"&. c #6B655D",
"*. c #6B665D",
"=. c #6B675D",
"-. c #6C675E",
";. c #6C685E",
":. c #6D685F",
">. c #706456",
",. c #766A5B",
"<. c #777569",
"1. c #7A786C",
"2. c #7E7C72",
"3. c #7F7D73",
"4. c #807C74",
"5. c #807D74",
"6. c #817D75",
"7. c #807E74",
"8. c #817E75",
"9. c #817E76",
"0. c #827F76",
"q. c #827F77",
"w. c #848078",
"e. c #86847B",
"r. c #87867A",
"t. c None",
/* pixels */
"| | | | | | | | F | | | | | | | | | | | | | | | F | | | | | | | ",
"r.r.r.r.r.r.r.r.,.r.r.r.r.r.r.r.r.r.r.r.r.r.r.r.,.r.r.r.r.r.r.r.",
"5.4.4.4.4.5.q.w.>.w.0.9.9.6.8.8.5.4.4.4.4.5.q.w.>.w.0.9.9.6.8.8.",
":.:.:.:.;.;.;.-.D ;.-.;.-.-.-.-.:.:.:.:.;.;.;.-.D ;.-.;.-.-.-.-.",
"-.-.-.-.-.=.=.=.Z *.*.*.*.*.*.*.-.-.-.-.-.=.=.=.Z *.*.*.*.*.*.*.",
"$.$.$.$.$.$.&.&.M $.$.#.#.#.$.$.$.$.$.$.$.$.&.&.M $.$.#.#.#.$.$.",
"+.+.+.+.+.+.+.+.0 O.O.O.+.+.+.+.+.+.+.+.+.+.+.+.0 O.O.O.+.+.+.+.",
"X.X.X.X.X.X.o.X.9 X.X.X.X.o.X.o.X.X.X.X.X.X.o.X.9 X.X.X.X.o.X.o.",
"................6 ..............................6 ..............",
"@ @ @ @ @ @ % % , & X t.t.t.t.t.t.t.t.t.t.  & & , & @ o @ @ # # ",
"x x x x x x x x x + t.t.t.t.t.t.t.t.t.t.t.t.. v v v x * x c c c ",
"x x x x x x x x O t.t.t.t.t.t.t.t.t.t.t.t.t.t.+ v v x = x x c c ",
"^ ^ ^ ^ ^ ^ ^ q t.t.t.t.t.t.t.t.t.t.t.t.t.t.t.t.y ~ ^ 7 ^ ^ ) ) ",
"/ / Q R / ) R 3 t.t.t.t.t.t.t.t.t.t.t.t.t.t.t.t.$ d k - S ` ` ` ",
"#.#.#.! @.@.@.b t.t.t.t.t.t.t.t.t.t.t.t.t.t.t.t.u #.@.@.@.@.@.@.",
"......R ......m t.t.t.t.t.t.t.t.t.t.t.t.t.t.t.t.w ..............",
"......R ......s t.t.t.t.t.t.t.t.t.t.t.t.t.t.t.t.e ..............",
"......z ......n t.t.t.t.t.t.t.t.t.t.t.t.t.t.t.t.b ..............",
"P A g h H ' ( < t.t.t.t.t.t.t.t.t.t.t.t.t.t.t.t.5 H U C E _ ] ] ",
"} } } } } } } 2 t.t.t.t.t.t.t.t.t.t.t.t.t.t.t.t.r { } J } } } } ",
"} } } } } } } 6 t.t.t.t.t.t.t.t.t.t.t.t.t.t.t.t.i { } W [ } } } ",
"} } } } } } } 8 t.t.t.t.t.t.t.t.t.t.t.t.t.t.t.t.i { } z } } } } ",
") Y G K T T G ; t.t.t.t.t.t.t.t.t.t.t.t.t.t.t.t.5 l z > j L L L ",
"O.O.O.I O.O.O.b t.t.t.t.t.t.t.t.t.t.t.t.t.t.t.t.r O.O.O.O.O.O.O.",
"} } } Y } } } p t.t.t.t.t.t.t.t.t.t.t.t.t.t.t.t.t } } } } } } } ",
"} } } G } } } r t.t.t.t.t.t.t.t.t.t.t.t.t.t.t.t.u } } } } } } } ",
"} } } f } } } 2 t.t.t.t.t.t.t.t.t.t.t.t.t.t.t.t.u } } } } } } } ",
"B B B B B B B V t.t.t.t.t.t.t.t.t.t.t.t.t.t.t.t.N a B B B B B B ",
"<.<.<.<.<.<.<.1.t.t.t.t.t.t.t.t.t.t.t.t.t.t.t.t.2.<.<.<.<.<.<.<.",
"3.3.3.3.3.3.3.7.t.t.t.t.t.t.t.t.t.t.t.t.t.t.t.t.e.3.3.3.3.3.3.3.",
" . . . . . . .%.t.t.t.t.t.t.t.t.t.t.t.t.t.t.t.t.:. . . . . . . .",
": : : : : : : 1 t.t.t.t.t.t.t.t.t.t.t.t.t.t.t.t.4 : : : : : : : "
};
