/* XPM */
static char *result[] = {
/* columns rows colors chars-per-pixel */
"32 32 48 1 ",
"  c #55321B",
". c #5A351D",
"X c #5C391F",
"o c #573621",
"O c #5C3B24",
"+ c #5B3E29",
"@ c #603F25",
"# c #5D412C",
"$ c #614126",
"% c #64442A",
"& c #68472A",
"* c #67492C",
"= c #6A4B2E",
"- c #614531",
"; c #664B36",
": c #6B4E32",
"> c #664E3A",
", c #684E39",
"< c #6E5134",
"1 c #66513E",
"2 c #6C523B",
"3 c #725536",
"4 c #725639",
"5 c #755A3B",
"6 c #795E3E",
"7 c #7B603F",
"8 c #675440",
"9 c #6A5642",
"0 c #6C5945",
"q c #6D5B48",
"w c #735B44",
"e c #7A5F40",
"r c #715F4B",
"t c #7C6241",
"y c #74624C",
"u c #78654F",
"i c #766552",
"p c #796751",
"a c #7A6954",
"s c #7C6D5A",
"d c #806645",
"f c #846B4C",
"g c #886F4F",
"h c #806B56",
"j c #8E7555",
"k c #927959",
"l c #827361",
"z c None",
/* pixels */
"zzzzzzzzzzzzzzzzzzzzzzzzzzzzzzzz",
"zzzzzzzzzzzzzzzzzzzzzzzzzzzzzzzz",
"zzzzzzzzzzzzzzzzzzzzzzzzzzzzzzzz",
"zzzzzzzzzzzzzzzzzzzzzzzzzzzzzzzz",
"zzzzzzzzzzzzzzzzzzzzzzzzzzzzzzzz",
"zzzzzzzzzzzzzzzzzzzzzzzzzzzzzzzz",
"zzzzzzzzzzzzzzzzzzzzzzzzzzzzzzzz",
"zzzzzzzzzzzzzt6=t73zzzzzzzzzzzzz",
"zzzzzzzzzz6k6kj3jj363%zzzzzzzzzz",
"zzzzzzzz33gk355:57=6f3=zzzzzzzzz",
"zzzzzzzzg36d<dd37t35e<d%zzzzzzzz",
"zzzzzzz4d=dd3e637t3d636ezzzzzzzz",
"zzzzzz:d5:dd36e3t737e46d=zzzzzzz",
"zzzzzz=653d536d3dd356466=zzzzzzz",
"zzzzzzO235wh4ee3d73gww42@zzzzzzz",
"zzzzzz%0ruaae4e4d73hprrw&zzzzzzz",
"zzzzzz XX.O%&w63dd3@XOXX zzzzzzz",
"zzzzzz$45=75<663d7357444$zzzzzzz",
"zzzzzz$43<66=663dd3d6433$zzzzzzz",
"zzzzzz$44=753553d7366333$zzzzzzz",
"zzzzzz$44<6535<ww3466333$zzzzzzz",
"zzzzzz$44<53<5>2r&464<<3@zzzzzzz",
"zzzzzz$44<54<5#>w@<65:<<@zzzzzzz",
"zzzzzz &$$=<&5$ .3<4=%%@.zzzzzzz",
"zzzzzz%yiaaau<4<444aayyy#zzzzzzz",
"zzzzzz ##%-0O3<:44&1-##+ zzzzzzz",
"zzzzzz.&&$:%&<3=<<*%<&&&.zzzzzzz",
"zzzzzzo<<&<<*4<%3<&55==;Ozzzzzzz",
"zzzzzzo>>,>,,>>+121,>;;-ozzzzzzz",
"zzzzzz-yiiiaass1lsspaiii-zzzzzzz",
"zzzzzzO1188000q-rqq0981>ozzzzzzz",
"zzzzzz O+++#+##o####++++ zzzzzzz"
};
