/* XPM */
static char *_4404d9cf5234b7de143b113d8c067e9roI9JBRcrIqxnsVS[] = {
/* columns rows colors chars-per-pixel */
"32 32 5 1 ",
"  c None",
". c #352310",
"X c #493620",
"o c #6B5335",
"O c #987C3F",
/* pixels */
" XOOo                           ",
" XOOo                           ",
" XOOo                           ",
" oOOo                           ",
" ooOX                           ",
" ooOX                           ",
" oOOo                           ",
" XOOo                           ",
" XOOo                           ",
" XOoo                           ",
" oOOX                           ",
" oOOo                           ",
" oOOo                           ",
" oOoo                           ",
" XXXX                           ",
"XOOOOX                          ",
".XXXX.                          ",
".oooo.                          ",
".oooX.                          ",
".XoXX.                          ",
".XooX.                          ",
".XooX.                          ",
".XooX.                          ",
".XooX.                          ",
".XooX.                          ",
".XooX.                          ",
".XooX.                          ",
".XooX.                          ",
".oXoX.                          ",
".oXXX.                          ",
".XXXX.                          ",
".XXXX.                          "
};
