/* XPM */
static char *ceb0f442bc124ad0c0021bc3c2763003fRNxOREsmOV3wcBx[] = {
/* columns rows colors chars-per-pixel */
"32 32 5 1 ",
"  c None",
". c #352310",
"X c #493620",
"o c #6B5335",
"O c #987C3F",
/* pixels */
"                                ",
"                                ",
"                                ",
"                                ",
"                                ",
"                                ",
"                                ",
" XXXX            XXXX           ",
"XOOOOX          XOOOOX          ",
".XXXX.          .XXXX.          ",
".oooo.          .oooo.          ",
".XooX.OOOOOOOOoX.oooo.OOOOOOOOoX",
".XoXX.XoooooooXo.XoXo.XoooooooXX",
".XooX.oooooooooX.XooX.oooXXooooo",
".XooX.XXXXXXXXXX.XooX.XXXXXXXXXX",
".XooX............XooX..........o",
".XooX.          .XooX.          ",
".XooX.          .XooX.          ",
".oXoo.          .XooX.          ",
".oXoX.          .XooX.          ",
".XooX.          .XXoX.          ",
".XoXX.          .XoXX.          ",
".XoXX.          .XoXX.          ",
".XXXX.          .XXXX.          ",
".XXXX.          .XXXX.          ",
"                                ",
"                                ",
"                                ",
"                                ",
"                                ",
"                                ",
"                                "
};
