/* XPM */
static char *bd5ce41e590841b1d16a8cb960612f5dZqOFePqQxFCxhLuM[] = {
/* columns rows colors chars-per-pixel */
"32 32 5 1 ",
"  c None",
". c #352310",
"X c #493620",
"o c #6B5335",
"O c #987C3F",
/* pixels */
" XOoX                           ",
" XoOX                           ",
" XoOX                           ",
" XooX                           ",
" XOoX                           ",
" XOOX                           ",
" XOOX                           ",
" XOoX                           ",
" XOOX                           ",
" XoOX                           ",
" XooX                           ",
" XoOX                           ",
" XOOX                           ",
" XoOX                           ",
" XXXX            XXXX           ",
"XOOOOX          XOOOOX          ",
".XXXX.          .XXXX.          ",
".oooo.          .oooo.          ",
".XooX.OOOOOOOOoX.oooo.OOOOOOOOoX",
".XoXX.XoooooooXo.XoXo.XoooooooXX",
".XooX.oooooooooX.XooX.oooXXooooo",
".XooX.XXXXXXXXXX.XooX.XXXXXXXXXX",
".XooX............XooX..........o",
".XooX.          .XooX.          ",
".XooX.          .XooX.          ",
".oXoo.          .XooX.          ",
".oXoX.          .XooX.          ",
".XooX.          .XXoX.          ",
".XoXX.          .XoXX.          ",
".XoXX.          .XoXX.          ",
".XXXX.          .XXXX.          ",
".XXXX.          .XXXX.          "
};
