/* XPM */
static char *_b74b89b03a6442fa901e58d83a9853bAV4EomBq7DmQ2RHF[] = {
/* columns rows colors chars-per-pixel */
"32 32 5 1 ",
"  c None",
". c #352310",
"X c #493620",
"o c #6B5335",
"O c #987C3F",
/* pixels */
"                                ",
"                                ",
"                                ",
"                                ",
"                                ",
"                                ",
"                                ",
"                                ",
"                                ",
"                                ",
"                                ",
"                                ",
"                                ",
"                                ",
" XXXX                           ",
"XOOOOX                          ",
".XXXX.                          ",
".oooo.                          ",
".oooX.                          ",
".XoXX.                          ",
".XooX.                          ",
".XooX.                          ",
".XooX.                          ",
".XooX.                          ",
".XooX.                          ",
".XooX.                          ",
".XooX.                          ",
".XooX.                          ",
".oXoX.                          ",
".oXXX.                          ",
".XXXX.                          ",
".XXXX.                          "
};
